<svg width="64" height="64" viewBox="0 0 64 64" fill="none" xmlns="http://www.w3.org/2000/svg">
<path d="M49 28H47V17H36V15C36 10.617 33.383 8 29 8C24.617 8 22 10.617 22 15V17H11V53H26V47C26 44.813 26.813 44 29 44C31.187 44 32 44.813 32 47V53H47V42H49C53.383 42 56 39.383 56 35C56 30.617 53.383 28 49 28ZM49 38H43V49H36V47C36 42.617 33.383 40 29 40C24.617 40 22 42.617 22 47V49H15V21H26V15C26 12.813 26.813 12 29 12C31.187 12 32 12.813 32 15V21H43V32H49C51.187 32 52 32.813 52 35C52 37.187 51.187 38 49 38Z" fill="#1E1919"/>
</svg>
