<svg width="65" height="64" viewBox="0 0 65 64" fill="none" xmlns="http://www.w3.org/2000/svg">
<path d="M8.5 14V44C8.50185 45.5907 9.13459 47.1158 10.2594 48.2406C11.3842 49.3654 12.9093 49.9981 14.5 50H50.5C52.0907 49.9981 53.6158 49.3654 54.7406 48.2406C55.8654 47.1158 56.4981 45.5907 56.5 44V14H8.5ZM49.672 18L32.5 35.171L15.328 18H49.672ZM50.5 46H14.5C13.9696 46 13.4609 45.7893 13.0858 45.4142C12.7107 45.0391 12.5 44.5304 12.5 44V20.828L32.5 40.828L52.5 20.828V44C52.5 44.5304 52.2893 45.0391 51.9142 45.4142C51.5391 45.7893 51.0304 46 50.5 46Z" fill="#1E1919"/>
</svg>
