<svg width="64" height="64" viewBox="0 0 64 64" fill="none" xmlns="http://www.w3.org/2000/svg">
<path d="M32 8C16.523 8 8 16.523 8 32C8 47.477 16.523 56 32 56C47.477 56 56 47.477 56 32C56 16.523 47.477 8 32 8ZM32 52C18.729 52 12 45.271 12 32C12 18.729 18.729 12 32 12C45.271 12 52 18.729 52 32C52 45.271 45.271 52 32 52Z" fill="#1E1919"/>
<path d="M32 41C31.6044 41 31.2178 41.1173 30.8889 41.3371C30.56 41.5568 30.3036 41.8692 30.1522 42.2346C30.0009 42.6001 29.9613 43.0022 30.0384 43.3902C30.1156 43.7781 30.3061 44.1345 30.5858 44.4142C30.8655 44.6939 31.2219 44.8844 31.6098 44.9616C31.9978 45.0387 32.3999 44.9991 32.7654 44.8478C33.1308 44.6964 33.4432 44.44 33.6629 44.1111C33.8827 43.7822 34 43.3956 34 43C34.0216 42.7319 33.9847 42.4623 33.8918 42.2098C33.7989 41.9574 33.6523 41.7281 33.4621 41.5379C33.2719 41.3477 33.0426 41.2011 32.7902 41.1082C32.5377 41.0153 32.2681 40.9784 32 41Z" fill="#1E1919"/>
<path d="M32 19C29.8841 18.9261 27.8247 19.6917 26.271 21.13C25.512 21.9017 24.919 22.8206 24.5284 23.8301C24.1379 24.8396 23.958 25.9184 24 27V28H28V27C27.9614 26.4544 28.0351 25.9067 28.2166 25.3907C28.398 24.8747 28.6834 24.4013 29.055 24C29.8734 23.3036 30.9268 22.9459 32 23C33.0736 22.9457 34.1273 23.3034 34.946 24C35.3174 24.4014 35.6026 24.8748 35.7839 25.3908C35.9652 25.9068 36.0387 26.4545 36 27C36.0383 27.5458 35.9643 28.0936 35.7825 28.6096C35.6007 29.1256 35.315 29.5988 34.943 30C34.6741 30.2403 34.3732 30.4422 34.049 30.6C33.4042 30.9431 32.8054 31.3664 32.267 31.86C31.5069 32.6345 30.9135 33.5565 30.5236 34.5692C30.1337 35.5819 29.9555 36.6637 30 37.748V38.509C30.6138 38.1752 31.3013 38.0003 32 38.0003C32.6987 38.0003 33.3862 38.1752 34 38.509V38L33.971 37.986H34V37.734C33.9617 37.1885 34.0354 36.6409 34.2167 36.125C34.3979 35.609 34.6829 35.1357 35.054 34.734C35.324 34.5008 35.6199 34.2994 35.936 34.134C36.5924 33.7993 37.1983 33.3738 37.736 32.87C38.4937 32.0977 39.0854 31.1785 39.4748 30.169C39.8641 29.1596 40.0429 28.0811 40 27C40.042 25.9186 39.8623 24.8401 39.4719 23.8308C39.0815 22.8214 38.4887 21.9027 37.73 21.131C36.1761 19.6922 34.1164 18.9262 32 19Z" fill="#1E1919"/>
</svg>
