<svg fill="none" height="64" viewBox="0 0 64 64" width="64" xmlns="http://www.w3.org/2000/svg"><path d="m48 42c-.9142-.0098-1.8213.16-2.67.5l-3.214-3.214c1.3189-2.1956 1.9733-4.7263 1.884-7.286.0897-2.5604-.5647-5.0919-1.884-7.288l3.214-3.212c.8487.34 1.7558.5098 2.67.5 3.7 0 6-2.3 6-6s-2.3-6-6-6-6 2.3-6 6c-.0098.9142.16 1.8213.5 2.67l-3.214 3.214c-2.1956-1.3189-4.7263-1.9733-7.286-1.884-2.5604-.0897-5.0919.5647-7.288 1.884l-3.212-3.214c.34-.8487.5098-1.7558.5-2.67 0-3.7-2.3-6-6-6s-6 2.3-6 6 2.3 6 6 6c.9142.0098 1.8213-.1601 2.67-.5l3.214 3.214c-1.3189 2.1956-1.9733 4.7263-1.884 7.286-.0897 2.5604.5647 5.0919 1.884 7.288l-3.214 3.212c-.8487-.34-1.7558-.5098-2.67-.5-3.7 0-6 2.3-6 6s2.3 6 6 6 6-2.3 6-6c.0098-.9142-.16-1.8213-.5-2.67l3.214-3.214c2.1956 1.3189 4.7263 1.9733 7.286 1.884 2.5604.0897 5.0919-.5647 7.288-1.884l3.212 3.214c-.3399.8487-.5098 1.7558-.5 2.67 0 3.7 2.3 6 6 6s6-2.3 6-6-2.3-6-6-6zm0-28c1.514 0 2 .486 2 2s-.486 2-2 2-2-.486-2-2 .486-2 2-2zm-32 4c-1.514 0-2-.486-2-2s.486-2 2-2 2 .486 2 2-.486 2-2 2zm0 32c-1.514 0-2-.486-2-2s.486-2 2-2 2 .486 2 2-.486 2-2 2zm8-18c0-5.458 2.542-8 8-8s8 2.542 8 8-2.542 8-8 8-8-2.542-8-8zm24 18c-1.514 0-2-.486-2-2s.486-2 2-2 2 .486 2 2-.486 2-2 2z" fill="#1e1919"/></svg>